<mxfile host="Electron" modified="2023-09-23T10:27:17.701Z" agent="Mozilla/5.0 (Windows NT 10.0; Win64; x64) AppleWebKit/537.36 (KHTML, like Gecko) draw.io/21.7.5 Chrome/114.0.5735.289 Electron/25.8.1 Safari/537.36" etag="pq7ZH07qo5crMLJIvjwX" version="21.7.5" type="device">
  <diagram name="Database ER Diagram" id="S4qCdO56IddWzfysVUKZ">
    <mxGraphModel dx="1167" dy="1143" grid="1" gridSize="10" guides="1" tooltips="1" connect="1" arrows="1" fold="1" page="0" pageScale="1" pageWidth="850" pageHeight="1100" math="0" shadow="0">
      <root>
        <mxCell id="0" />
        <mxCell id="1" parent="0" />
        <mxCell id="Y48gruY4uMkVQWLDXMq1-1" value="User" style="whiteSpace=wrap;html=1;align=center;labelBackgroundColor=none;fillColor=#182E3E;strokeColor=#FFFFFF;fontColor=#FFFFFF;" parent="1" vertex="1">
          <mxGeometry x="190" y="130" width="100" height="40" as="geometry" />
        </mxCell>
        <mxCell id="Y48gruY4uMkVQWLDXMq1-25" value="password" style="ellipse;whiteSpace=wrap;html=1;align=center;labelBackgroundColor=none;fillColor=#182E3E;strokeColor=#FFFFFF;fontColor=#FFFFFF;" parent="1" vertex="1">
          <mxGeometry x="370" y="70" width="100" height="40" as="geometry" />
        </mxCell>
        <mxCell id="Y48gruY4uMkVQWLDXMq1-26" value="id" style="ellipse;whiteSpace=wrap;html=1;align=center;fontStyle=4;labelBackgroundColor=none;fillColor=#182E3E;strokeColor=#FFFFFF;fontColor=#FFFFFF;" parent="1" vertex="1">
          <mxGeometry y="70" width="100" height="40" as="geometry" />
        </mxCell>
        <mxCell id="Y48gruY4uMkVQWLDXMq1-29" value="" style="endArrow=none;html=1;rounded=0;exitX=1;exitY=0.5;exitDx=0;exitDy=0;entryX=0;entryY=1;entryDx=0;entryDy=0;labelBackgroundColor=none;strokeColor=#23445D;fontColor=default;" parent="1" source="Y48gruY4uMkVQWLDXMq1-1" target="Y48gruY4uMkVQWLDXMq1-25" edge="1">
          <mxGeometry relative="1" as="geometry">
            <mxPoint x="260" y="200" as="sourcePoint" />
            <mxPoint x="420" y="200" as="targetPoint" />
          </mxGeometry>
        </mxCell>
        <mxCell id="Y48gruY4uMkVQWLDXMq1-30" value="" style="endArrow=none;html=1;rounded=0;exitX=0.75;exitY=0;exitDx=0;exitDy=0;entryX=0.5;entryY=1;entryDx=0;entryDy=0;labelBackgroundColor=none;strokeColor=#23445D;fontColor=default;" parent="1" source="Y48gruY4uMkVQWLDXMq1-1" edge="1">
          <mxGeometry relative="1" as="geometry">
            <mxPoint x="300" y="160" as="sourcePoint" />
            <mxPoint x="300" y="60" as="targetPoint" />
          </mxGeometry>
        </mxCell>
        <mxCell id="Y48gruY4uMkVQWLDXMq1-31" value="" style="endArrow=none;html=1;rounded=0;exitX=0.25;exitY=0;exitDx=0;exitDy=0;entryX=0.5;entryY=1;entryDx=0;entryDy=0;labelBackgroundColor=none;strokeColor=#23445D;fontColor=default;" parent="1" source="Y48gruY4uMkVQWLDXMq1-1" edge="1">
          <mxGeometry relative="1" as="geometry">
            <mxPoint x="275" y="140" as="sourcePoint" />
            <mxPoint x="160" y="60" as="targetPoint" />
          </mxGeometry>
        </mxCell>
        <mxCell id="Y48gruY4uMkVQWLDXMq1-32" value="" style="endArrow=none;html=1;rounded=0;exitX=0;exitY=0.5;exitDx=0;exitDy=0;entryX=1;entryY=1;entryDx=0;entryDy=0;labelBackgroundColor=none;strokeColor=#23445D;fontColor=default;" parent="1" source="Y48gruY4uMkVQWLDXMq1-1" target="Y48gruY4uMkVQWLDXMq1-26" edge="1">
          <mxGeometry relative="1" as="geometry">
            <mxPoint x="225" y="140" as="sourcePoint" />
            <mxPoint x="170" y="70" as="targetPoint" />
          </mxGeometry>
        </mxCell>
        <mxCell id="Y48gruY4uMkVQWLDXMq1-33" value="Profile" style="whiteSpace=wrap;html=1;align=center;labelBackgroundColor=none;fillColor=#182E3E;strokeColor=#FFFFFF;fontColor=#FFFFFF;" parent="1" vertex="1">
          <mxGeometry x="820" y="130" width="100" height="40" as="geometry" />
        </mxCell>
        <mxCell id="1qY1PoXrJTTYbtQSf-mt-1" value="username" style="ellipse;whiteSpace=wrap;html=1;align=center;fontStyle=4;labelBackgroundColor=none;fillColor=#182E3E;strokeColor=#FFFFFF;fontColor=#FFFFFF;" vertex="1" parent="1">
          <mxGeometry x="100" y="20" width="100" height="40" as="geometry" />
        </mxCell>
        <mxCell id="1qY1PoXrJTTYbtQSf-mt-2" value="email" style="ellipse;whiteSpace=wrap;html=1;align=center;fontStyle=4;labelBackgroundColor=none;fillColor=#182E3E;strokeColor=#FFFFFF;fontColor=#FFFFFF;" vertex="1" parent="1">
          <mxGeometry x="250" y="20" width="100" height="40" as="geometry" />
        </mxCell>
        <mxCell id="1qY1PoXrJTTYbtQSf-mt-3" value="id" style="ellipse;whiteSpace=wrap;html=1;align=center;fontStyle=4;labelBackgroundColor=none;fillColor=#182E3E;strokeColor=#FFFFFF;fontColor=#FFFFFF;" vertex="1" parent="1">
          <mxGeometry x="400" y="-30" width="100" height="40" as="geometry" />
        </mxCell>
        <mxCell id="1qY1PoXrJTTYbtQSf-mt-4" value="" style="endArrow=none;html=1;rounded=0;entryX=1;entryY=1;entryDx=0;entryDy=0;exitX=-0.016;exitY=0.537;exitDx=0;exitDy=0;exitPerimeter=0;labelBackgroundColor=none;strokeColor=#23445D;fontColor=default;" edge="1" target="1qY1PoXrJTTYbtQSf-mt-3" parent="1" source="Y48gruY4uMkVQWLDXMq1-33">
          <mxGeometry relative="1" as="geometry">
            <mxPoint x="800" y="150" as="sourcePoint" />
            <mxPoint x="800" y="70" as="targetPoint" />
          </mxGeometry>
        </mxCell>
        <mxCell id="1qY1PoXrJTTYbtQSf-mt-5" value="name" style="ellipse;whiteSpace=wrap;html=1;align=center;labelBackgroundColor=none;fillColor=#182E3E;strokeColor=#FFFFFF;fontColor=#FFFFFF;" vertex="1" parent="1">
          <mxGeometry x="400" y="-80" width="100" height="40" as="geometry" />
        </mxCell>
        <mxCell id="1qY1PoXrJTTYbtQSf-mt-6" value="" style="endArrow=none;html=1;rounded=0;exitX=0.004;exitY=0.353;exitDx=0;exitDy=0;entryX=0.754;entryY=0.93;entryDx=0;entryDy=0;exitPerimeter=0;entryPerimeter=0;labelBackgroundColor=none;strokeColor=#23445D;fontColor=default;" edge="1" parent="1" source="Y48gruY4uMkVQWLDXMq1-33" target="1qY1PoXrJTTYbtQSf-mt-5">
          <mxGeometry relative="1" as="geometry">
            <mxPoint x="830" y="160" as="sourcePoint" />
            <mxPoint x="385" y="-76" as="targetPoint" />
          </mxGeometry>
        </mxCell>
        <mxCell id="1qY1PoXrJTTYbtQSf-mt-7" value="&lt;u&gt;photo&lt;/u&gt;" style="ellipse;whiteSpace=wrap;html=1;align=center;labelBackgroundColor=none;fillColor=#182E3E;strokeColor=#FFFFFF;fontColor=#FFFFFF;" vertex="1" parent="1">
          <mxGeometry x="400" y="-140" width="100" height="40" as="geometry" />
        </mxCell>
        <mxCell id="1qY1PoXrJTTYbtQSf-mt-8" value="" style="endArrow=none;html=1;rounded=0;exitX=0;exitY=0.25;exitDx=0;exitDy=0;entryX=0.754;entryY=0.93;entryDx=0;entryDy=0;entryPerimeter=0;labelBackgroundColor=none;strokeColor=#23445D;fontColor=default;" edge="1" target="1qY1PoXrJTTYbtQSf-mt-7" parent="1" source="Y48gruY4uMkVQWLDXMq1-33">
          <mxGeometry relative="1" as="geometry">
            <mxPoint x="820" y="84" as="sourcePoint" />
            <mxPoint x="385" y="-136" as="targetPoint" />
          </mxGeometry>
        </mxCell>
        <mxCell id="1qY1PoXrJTTYbtQSf-mt-10" value="&lt;u&gt;coverPhoto&lt;/u&gt;" style="ellipse;whiteSpace=wrap;html=1;align=center;labelBackgroundColor=none;fillColor=#182E3E;strokeColor=#FFFFFF;fontColor=#FFFFFF;" vertex="1" parent="1">
          <mxGeometry x="400" y="-200" width="100" height="40" as="geometry" />
        </mxCell>
        <mxCell id="1qY1PoXrJTTYbtQSf-mt-11" value="" style="endArrow=none;html=1;rounded=0;exitX=0;exitY=0;exitDx=0;exitDy=0;entryX=0.754;entryY=0.93;entryDx=0;entryDy=0;entryPerimeter=0;labelBackgroundColor=none;strokeColor=#23445D;fontColor=default;" edge="1" target="1qY1PoXrJTTYbtQSf-mt-10" parent="1" source="Y48gruY4uMkVQWLDXMq1-33">
          <mxGeometry relative="1" as="geometry">
            <mxPoint x="820" y="80" as="sourcePoint" />
            <mxPoint x="385" y="-196" as="targetPoint" />
          </mxGeometry>
        </mxCell>
        <mxCell id="1qY1PoXrJTTYbtQSf-mt-12" value="about" style="ellipse;whiteSpace=wrap;html=1;align=center;labelBackgroundColor=none;fillColor=#182E3E;strokeColor=#FFFFFF;fontColor=#FFFFFF;" vertex="1" parent="1">
          <mxGeometry x="510" y="-200" width="100" height="40" as="geometry" />
        </mxCell>
        <mxCell id="1qY1PoXrJTTYbtQSf-mt-13" value="" style="endArrow=none;html=1;rounded=0;exitX=0.053;exitY=0.007;exitDx=0;exitDy=0;entryX=0;entryY=1;entryDx=0;entryDy=0;exitPerimeter=0;labelBackgroundColor=none;strokeColor=#23445D;fontColor=default;" edge="1" target="1qY1PoXrJTTYbtQSf-mt-12" parent="1" source="Y48gruY4uMkVQWLDXMq1-33">
          <mxGeometry relative="1" as="geometry">
            <mxPoint x="930" y="130" as="sourcePoint" />
            <mxPoint x="495" y="-196" as="targetPoint" />
          </mxGeometry>
        </mxCell>
        <mxCell id="1qY1PoXrJTTYbtQSf-mt-14" value="location" style="ellipse;whiteSpace=wrap;html=1;align=center;labelBackgroundColor=none;fillColor=#182E3E;strokeColor=#FFFFFF;fontColor=#FFFFFF;" vertex="1" parent="1">
          <mxGeometry x="570" y="-160" width="100" height="40" as="geometry" />
        </mxCell>
        <mxCell id="1qY1PoXrJTTYbtQSf-mt-15" value="" style="endArrow=none;html=1;rounded=0;exitX=0.141;exitY=0.003;exitDx=0;exitDy=0;exitPerimeter=0;entryX=0.677;entryY=0.983;entryDx=0;entryDy=0;entryPerimeter=0;labelBackgroundColor=none;strokeColor=#23445D;fontColor=default;" edge="1" target="1qY1PoXrJTTYbtQSf-mt-14" parent="1" source="Y48gruY4uMkVQWLDXMq1-33">
          <mxGeometry relative="1" as="geometry">
            <mxPoint x="935" y="130" as="sourcePoint" />
            <mxPoint x="630" y="-120" as="targetPoint" />
          </mxGeometry>
        </mxCell>
        <mxCell id="1qY1PoXrJTTYbtQSf-mt-16" value="dateOfBirth" style="ellipse;whiteSpace=wrap;html=1;align=center;labelBackgroundColor=none;fillColor=#182E3E;strokeColor=#FFFFFF;fontColor=#FFFFFF;" vertex="1" parent="1">
          <mxGeometry x="620" y="-200" width="100" height="40" as="geometry" />
        </mxCell>
        <mxCell id="1qY1PoXrJTTYbtQSf-mt-17" value="" style="endArrow=none;html=1;rounded=0;entryX=0.414;entryY=0.992;entryDx=0;entryDy=0;entryPerimeter=0;exitX=0.195;exitY=0.008;exitDx=0;exitDy=0;exitPerimeter=0;labelBackgroundColor=none;strokeColor=#23445D;fontColor=default;" edge="1" parent="1" source="Y48gruY4uMkVQWLDXMq1-33" target="1qY1PoXrJTTYbtQSf-mt-16">
          <mxGeometry relative="1" as="geometry">
            <mxPoint x="840" y="130" as="sourcePoint" />
            <mxPoint x="690" y="-160" as="targetPoint" />
          </mxGeometry>
        </mxCell>
        <mxCell id="1qY1PoXrJTTYbtQSf-mt-18" value="personality" style="ellipse;whiteSpace=wrap;html=1;align=center;labelBackgroundColor=none;fillColor=#182E3E;strokeColor=#FFFFFF;fontColor=#FFFFFF;" vertex="1" parent="1">
          <mxGeometry x="680" y="-160" width="100" height="40" as="geometry" />
        </mxCell>
        <mxCell id="1qY1PoXrJTTYbtQSf-mt-19" value="" style="endArrow=none;html=1;rounded=0;exitX=0.25;exitY=0;exitDx=0;exitDy=0;entryX=0.677;entryY=0.983;entryDx=0;entryDy=0;entryPerimeter=0;labelBackgroundColor=none;strokeColor=#23445D;fontColor=default;" edge="1" target="1qY1PoXrJTTYbtQSf-mt-18" parent="1" source="Y48gruY4uMkVQWLDXMq1-33">
          <mxGeometry relative="1" as="geometry">
            <mxPoint x="944" y="130" as="sourcePoint" />
            <mxPoint x="740" y="-120" as="targetPoint" />
          </mxGeometry>
        </mxCell>
        <mxCell id="1qY1PoXrJTTYbtQSf-mt-21" value="" style="endArrow=none;html=1;rounded=0;entryX=0.572;entryY=1.039;entryDx=0;entryDy=0;entryPerimeter=0;exitX=0.334;exitY=-0.025;exitDx=0;exitDy=0;exitPerimeter=0;labelBackgroundColor=none;strokeColor=#23445D;fontColor=default;" edge="1" target="1qY1PoXrJTTYbtQSf-mt-22" parent="1" source="Y48gruY4uMkVQWLDXMq1-33">
          <mxGeometry relative="1" as="geometry">
            <mxPoint x="960" y="130" as="sourcePoint" />
            <mxPoint x="791.4000000000001" y="-160.32000000000005" as="targetPoint" />
          </mxGeometry>
        </mxCell>
        <mxCell id="1qY1PoXrJTTYbtQSf-mt-22" value="age" style="ellipse;whiteSpace=wrap;html=1;align=center;dashed=1;labelBackgroundColor=none;fillColor=#182E3E;strokeColor=#FFFFFF;fontColor=#FFFFFF;" vertex="1" parent="1">
          <mxGeometry x="730" y="-200" width="100" height="40" as="geometry" />
        </mxCell>
        <mxCell id="1qY1PoXrJTTYbtQSf-mt-23" value="has" style="shape=rhombus;perimeter=rhombusPerimeter;whiteSpace=wrap;html=1;align=center;strokeColor=#FFFFFF;fontColor=#FFFFFF;fillColor=#182E3E;" vertex="1" parent="1">
          <mxGeometry x="480" y="120" width="120" height="60" as="geometry" />
        </mxCell>
        <mxCell id="1qY1PoXrJTTYbtQSf-mt-26" value="" style="endArrow=none;html=1;rounded=0;strokeColor=#23445D;exitX=1;exitY=0.5;exitDx=0;exitDy=0;entryX=0;entryY=0.5;entryDx=0;entryDy=0;" edge="1" parent="1" source="Y48gruY4uMkVQWLDXMq1-1" target="1qY1PoXrJTTYbtQSf-mt-23">
          <mxGeometry relative="1" as="geometry">
            <mxPoint x="510" y="50" as="sourcePoint" />
            <mxPoint x="670" y="50" as="targetPoint" />
          </mxGeometry>
        </mxCell>
        <mxCell id="1qY1PoXrJTTYbtQSf-mt-27" value="1" style="resizable=0;html=1;whiteSpace=wrap;align=right;verticalAlign=bottom;strokeColor=#FFFFFF;fontColor=#FFFFFF;fillColor=#182E3E;" connectable="0" vertex="1" parent="1qY1PoXrJTTYbtQSf-mt-26">
          <mxGeometry x="1" relative="1" as="geometry">
            <mxPoint x="-30" as="offset" />
          </mxGeometry>
        </mxCell>
        <mxCell id="1qY1PoXrJTTYbtQSf-mt-28" value="" style="endArrow=none;html=1;rounded=0;strokeColor=#23445D;entryX=1;entryY=0.5;entryDx=0;entryDy=0;comic=0;exitX=0;exitY=0.5;exitDx=0;exitDy=0;" edge="1" parent="1" source="Y48gruY4uMkVQWLDXMq1-33" target="1qY1PoXrJTTYbtQSf-mt-23">
          <mxGeometry relative="1" as="geometry">
            <mxPoint x="750" y="230" as="sourcePoint" />
            <mxPoint x="575" y="190" as="targetPoint" />
          </mxGeometry>
        </mxCell>
        <mxCell id="1qY1PoXrJTTYbtQSf-mt-29" value="1" style="resizable=0;html=1;whiteSpace=wrap;align=right;verticalAlign=bottom;strokeColor=#FFFFFF;fontColor=#FFFFFF;fillColor=#182E3E;" connectable="0" vertex="1" parent="1qY1PoXrJTTYbtQSf-mt-28">
          <mxGeometry x="1" relative="1" as="geometry">
            <mxPoint x="40" as="offset" />
          </mxGeometry>
        </mxCell>
        <mxCell id="1qY1PoXrJTTYbtQSf-mt-32" value="interaction" style="ellipse;whiteSpace=wrap;html=1;align=center;labelBackgroundColor=none;fillColor=#182E3E;strokeColor=#FFFFFF;fontColor=#FFFFFF;" vertex="1" parent="1">
          <mxGeometry x="800" y="-155" width="100" height="40" as="geometry" />
        </mxCell>
        <mxCell id="1qY1PoXrJTTYbtQSf-mt-33" value="" style="endArrow=none;html=1;rounded=0;exitX=0.414;exitY=-0.108;exitDx=0;exitDy=0;entryX=0.5;entryY=1;entryDx=0;entryDy=0;labelBackgroundColor=none;strokeColor=#23445D;fontColor=default;exitPerimeter=0;" edge="1" target="1qY1PoXrJTTYbtQSf-mt-32" parent="1" source="Y48gruY4uMkVQWLDXMq1-33">
          <mxGeometry relative="1" as="geometry">
            <mxPoint x="965" y="135" as="sourcePoint" />
            <mxPoint x="860" y="-115" as="targetPoint" />
          </mxGeometry>
        </mxCell>
      </root>
    </mxGraphModel>
  </diagram>
</mxfile>
